<?xml version="1.0" encoding="UTF-8" standalone="no"?>
<!DOCTYPE svg PUBLIC "-//W3C//DTD SVG 1.1//EN" "http://www.w3.org/Graphics/SVG/1.1/DTD/svg11.dtd">
<svg width="100%" height="100%" viewBox="0 0 290 290" version="1.1" xmlns="http://www.w3.org/2000/svg" xmlns:xlink="http://www.w3.org/1999/xlink" xml:space="preserve" xmlns:serif="http://www.serif.com/" style="fill-rule:evenodd;clip-rule:evenodd;stroke-linejoin:round;stroke-miterlimit:2;">
    <circle cx="144.567" cy="144.568" r="144.568" style="fill:white; opacity: 90%"/>
    <path d="M173.601,143.158C173.071,142.629 173.071,141.771 173.601,141.242C174.129,140.712 174.988,140.712 175.517,141.242L179.305,145.031C179.835,145.559 179.835,146.418 179.305,146.947C179.042,147.211 178.694,147.344 178.347,147.344C178.001,147.344 177.653,147.211 177.39,146.947L173.601,143.158ZM168.229,152.145L173.181,154.196C173.35,154.266 173.525,154.299 173.698,154.299C174.231,154.299 174.735,153.985 174.952,153.463C175.238,152.772 174.91,151.979 174.217,151.692L169.265,149.641C168.575,149.355 167.781,149.683 167.495,150.374C167.208,151.065 167.537,151.858 168.229,152.145ZM172.066,162.502C172.814,162.502 173.421,161.896 173.421,161.148C173.422,160.4 172.815,159.793 172.067,159.793L166.709,159.791L166.708,159.791C165.96,159.791 165.353,160.397 165.353,161.145C165.352,161.893 165.959,162.5 166.707,162.5L172.066,162.502ZM174.951,168.833C174.663,168.141 173.869,167.814 173.18,168.099L168.228,170.15C167.536,170.436 167.208,171.229 167.494,171.92C167.711,172.442 168.214,172.758 168.747,172.758C168.92,172.758 169.095,172.724 169.264,172.654L174.216,170.604C174.909,170.316 175.237,169.523 174.951,168.833ZM177.388,175.347L173.599,179.136C173.069,179.666 173.069,180.522 173.599,181.052C173.863,181.317 174.211,181.449 174.557,181.449C174.903,181.449 175.251,181.317 175.515,181.052L179.304,177.263C179.833,176.734 179.833,175.877 179.304,175.347C178.775,174.817 177.916,174.817 177.388,175.347ZM185.82,179.701C185.127,179.415 184.335,179.744 184.048,180.435L181.997,185.386C181.71,186.078 182.039,186.871 182.73,187.157C182.9,187.227 183.075,187.261 183.248,187.261C183.781,187.261 184.284,186.945 184.501,186.424L186.553,181.473C186.84,180.781 186.511,179.988 185.82,179.701ZM193.505,181.229C192.757,181.229 192.151,181.835 192.151,182.584L192.151,187.944C192.151,188.693 192.757,189.299 193.505,189.299C194.254,189.299 194.86,188.693 194.86,187.944L194.86,182.584C194.86,181.835 194.254,181.229 193.505,181.229ZM202.961,180.435C202.673,179.743 201.878,179.414 201.19,179.7C200.498,179.987 200.17,180.78 200.456,181.471L202.507,186.422C202.724,186.944 203.228,187.26 203.761,187.26C203.934,187.26 204.109,187.226 204.278,187.156C204.97,186.87 205.298,186.077 205.012,185.386L202.961,180.435ZM209.622,175.347C209.093,174.817 208.235,174.817 207.706,175.347C207.177,175.877 207.177,176.734 207.706,177.263L211.495,181.052C211.759,181.317 212.107,181.449 212.453,181.449C212.799,181.449 213.147,181.317 213.411,181.052C213.941,180.522 213.941,179.666 213.411,179.136L209.622,175.347ZM94.644,75.462L128.762,75.462L128.791,76.817L128.791,75.462C133.423,75.462 137.192,71.693 137.192,67.061C137.192,62.428 133.423,58.66 128.791,58.66C127.285,58.66 125.806,59.064 124.514,59.831L122.655,60.933L122.473,58.779C122.005,53.242 117.281,48.904 111.718,48.904C106.155,48.904 101.431,53.242 100.962,58.78L100.781,60.934L98.921,59.831C97.63,59.065 96.152,58.661 94.645,58.661C90.013,58.661 86.244,62.429 86.244,67.062C86.243,71.693 90.012,75.462 94.644,75.462ZM33.514,142.133C33.514,135.56 38.86,130.214 45.432,130.214C47.569,130.214 49.667,130.789 51.499,131.875L53.359,132.978L53.54,130.824C54.199,123.038 60.84,116.941 68.661,116.941C72.272,116.941 75.623,118.252 78.258,120.419C80.685,122.413 82.497,125.136 83.325,128.26C83.545,129.091 83.706,129.944 83.781,130.825L83.962,132.979L85.822,131.877C86.233,131.633 86.661,131.423 87.096,131.232C88.602,130.57 90.232,130.216 91.889,130.216C95.466,130.216 98.672,131.808 100.858,134.312C102.689,136.407 103.807,139.141 103.807,142.136C103.807,148.709 98.46,154.055 91.889,154.055L91.889,155.409L91.849,154.055L45.432,154.055C38.86,154.052 33.514,148.705 33.514,142.133ZM182.389,55.137L208.04,55.137L208.061,56.492L208.061,55.137C211.358,55.137 214.042,52.454 214.042,49.157C214.042,45.859 211.358,43.177 208.061,43.177C206.989,43.177 205.937,43.465 205.017,44.011L203.158,45.113L202.977,42.96C202.638,38.968 199.235,35.843 195.226,35.843C191.218,35.843 187.812,38.969 187.475,42.96L187.293,45.113L185.435,44.011C184.515,43.466 183.463,43.177 182.39,43.177C179.092,43.177 176.41,45.859 176.41,49.157C176.41,52.454 179.091,55.137 182.389,55.137ZM144.567,6.356C68.358,6.356 6.356,68.358 6.356,144.567C6.356,220.776 68.358,282.779 144.567,282.779C220.777,282.779 282.778,220.776 282.778,144.567C282.778,68.358 220.777,6.356 144.567,6.356ZM182.389,40.467C183.313,40.467 184.227,40.614 185.097,40.9C186.311,36.422 190.451,33.132 195.226,33.132C200.001,33.132 204.14,36.422 205.354,40.9C206.224,40.615 207.138,40.467 208.062,40.467C212.855,40.467 216.752,44.365 216.752,49.157C216.752,53.948 212.855,57.847 208.062,57.847L182.351,57.846C177.557,57.807 173.699,53.924 173.699,49.157C173.699,44.365 177.598,40.467 182.389,40.467ZM94.644,55.949C95.987,55.949 97.313,56.193 98.559,56.663C99.955,50.661 105.405,46.194 111.718,46.194C118.031,46.194 123.481,50.661 124.876,56.663C126.121,56.193 127.447,55.949 128.791,55.949C134.918,55.949 139.903,60.934 139.903,67.061C139.903,73.188 134.918,78.172 128.791,78.172L94.673,78.172C88.518,78.172 83.533,73.188 83.533,67.061C83.533,60.934 88.518,55.949 94.644,55.949ZM45.432,127.504C47.391,127.504 49.324,127.898 51.115,128.653C52.748,120.424 60.106,114.23 68.662,114.23C71.74,114.23 74.657,115.043 77.214,116.452C77.029,115.315 76.928,114.149 76.928,112.96C76.928,104.24 82.123,96.738 89.583,93.365C88.363,96.064 87.678,99.056 87.678,102.21C87.678,114.084 97.305,123.71 109.178,123.71C112.332,123.71 115.326,123.025 118.023,121.805C115.375,127.657 110.183,132.101 103.862,133.751C105.531,136.128 106.519,139.014 106.519,142.133C106.519,150.2 99.956,156.762 91.89,156.762L45.41,156.761C37.328,156.725 30.803,150.177 30.803,142.133C30.804,134.066 37.366,127.504 45.432,127.504ZM144.567,277.358C80.456,277.358 26.813,231.689 14.456,171.177C24.793,195.379 48.81,212.344 76.791,212.344C114.214,212.344 144.55,182.007 144.55,144.585C144.55,107.162 174.887,76.826 212.309,76.826C240.349,76.826 264.411,93.861 274.713,118.145C276.445,126.687 277.357,135.523 277.357,144.568C277.357,217.789 217.789,277.358 144.567,277.358ZM206.897,222.075C206.897,228.201 201.913,233.186 195.786,233.186C194.445,233.186 193.118,232.943 191.872,232.473C190.477,238.474 185.027,242.941 178.714,242.941C172.4,242.941 166.951,238.475 165.556,232.473C164.309,232.942 162.983,233.186 161.64,233.186C155.514,233.186 150.529,228.201 150.529,222.075C150.529,215.948 155.514,210.964 161.64,210.964L195.839,210.964C201.973,211.022 206.897,215.984 206.897,222.075ZM204.188,222.075C204.188,217.442 200.419,213.673 195.786,213.673L161.605,213.673C157.008,213.673 153.239,217.442 153.239,222.075C153.239,226.707 157.008,230.476 161.641,230.476C163.147,230.476 164.626,230.071 165.918,229.304L167.777,228.203L167.958,230.357C168.427,235.894 173.151,240.232 178.714,240.232C184.276,240.232 189.001,235.894 189.469,230.357L189.651,228.203L191.509,229.304C192.802,230.071 194.28,230.476 195.786,230.476C200.419,230.476 204.188,226.707 204.188,222.075ZM115.433,239.978C115.433,244.771 111.534,248.668 106.743,248.668C105.819,248.668 104.905,248.522 104.035,248.236C102.82,252.714 98.68,256.003 93.906,256.003C89.131,256.003 84.993,252.714 83.778,248.236C82.909,248.522 81.995,248.668 81.07,248.668C76.279,248.668 72.38,244.771 72.38,239.978C72.38,235.186 76.279,231.288 81.07,231.288L106.838,231.291C111.619,231.374 115.433,235.239 115.433,239.978ZM112.722,239.978C112.722,236.681 110.04,233.997 106.743,233.997L81.018,233.996C77.773,233.997 75.09,236.681 75.09,239.978C75.09,243.276 77.773,245.959 81.07,245.959C82.143,245.959 83.194,245.67 84.113,245.125L85.973,244.021L86.154,246.177C86.492,250.168 89.896,253.294 93.905,253.294C97.915,253.294 101.319,250.167 101.656,246.177L101.838,244.021L103.698,245.125C104.615,245.67 105.668,245.959 106.742,245.959C110.04,245.958 112.722,243.276 112.722,239.978ZM258.305,147.019C258.305,155.085 251.744,161.647 243.677,161.647C241.718,161.647 239.786,161.253 237.995,160.497C236.361,168.725 229.003,174.919 220.448,174.919C215.844,174.919 211.595,173.114 208.391,170.174C205.33,175.203 199.811,178.58 193.506,178.58C183.892,178.58 176.073,170.759 176.073,161.148C176.073,155.653 178.634,150.752 182.619,147.554C182.612,147.375 182.592,147.199 182.592,147.019C182.592,138.952 189.154,132.39 197.221,132.39L243.702,132.391C251.781,132.428 258.305,138.976 258.305,147.019ZM206.47,168.116C204.726,165.931 203.465,163.341 202.902,160.497C201.111,161.254 199.178,161.647 197.221,161.647C190.445,161.647 184.748,157.011 183.092,150.75C180.431,153.415 178.782,157.092 178.782,161.147C178.782,169.264 185.388,175.869 193.506,175.869C199.104,175.87 203.981,172.728 206.47,168.116ZM255.596,147.019C255.596,140.447 250.249,135.1 243.677,135.1L197.258,135.1C191.081,135.1 186.011,139.767 185.37,145.739C185.325,146.16 185.299,146.586 185.299,147.018C185.299,147.637 185.36,148.241 185.452,148.835C186.331,154.544 191.264,158.935 197.219,158.935C199.353,158.935 201.452,158.361 203.287,157.273L205.145,156.17L205.327,158.324C205.538,160.824 206.373,163.146 207.658,165.152C208.238,166.055 208.915,166.888 209.666,167.648C212.438,170.456 216.269,172.208 220.446,172.208C228.267,172.208 234.908,166.109 235.567,158.324L235.749,156.17L237.607,157.273C239.441,158.361 241.538,158.935 243.675,158.935C250.25,158.937 255.596,153.59 255.596,147.019Z" style="fill-rule:nonzero;"/>
</svg>
