<?xml version="1.0" encoding="UTF-8" standalone="no"?>
<!DOCTYPE svg PUBLIC "-//W3C//DTD SVG 1.1//EN" "http://www.w3.org/Graphics/SVG/1.1/DTD/svg11.dtd">
<svg width="100%" height="100%" viewBox="0 0 512 512" version="1.1" xmlns="http://www.w3.org/2000/svg" xmlns:xlink="http://www.w3.org/1999/xlink" xml:space="preserve" xmlns:serif="http://www.serif.com/" style="fill-rule:evenodd;clip-rule:evenodd;stroke-linejoin:round;stroke-miterlimit:2;">
    <path d="M288.77,22.947C160.279,22.947 56.237,127.3 56.237,256C56.237,384.7 160.279,489.053 288.77,489.053C351.819,489.053 408.938,463.875 450.867,423.091C456.069,417.993 457.422,410.086 454.092,403.635C450.763,397.185 443.584,393.543 436.405,394.792C426.209,396.56 415.805,397.497 405.089,397.497C304.272,397.497 222.496,315.512 222.496,214.383C222.496,145.924 259.951,86.308 315.405,54.887C321.751,51.246 324.977,43.963 323.416,36.888C321.855,29.813 315.821,24.507 308.538,23.883C301.984,23.363 295.429,23.051 288.77,23.051L288.77,22.947Z" style="fill-rule:nonzero;"/>
</svg>
