<?xml version="1.0" encoding="UTF-8" standalone="no"?>
<!DOCTYPE svg PUBLIC "-//W3C//DTD SVG 1.1//EN" "http://www.w3.org/Graphics/SVG/1.1/DTD/svg11.dtd">
<svg width="100%" height="100%" viewBox="0 0 1195 1195" version="1.1" xmlns="http://www.w3.org/2000/svg" xmlns:xlink="http://www.w3.org/1999/xlink" xml:space="preserve" xmlns:serif="http://www.serif.com/" style="fill-rule:evenodd;clip-rule:evenodd;stroke-linecap:round;stroke-linejoin:round;stroke-miterlimit:1.5;">
    <path d="M1187.92,597.293C1187.92,434.193 1055.7,301.98 892.605,301.98C729.509,301.98 597.293,434.193 597.293,597.293C597.293,760.388 465.076,892.605 301.98,892.605C138.88,892.605 6.667,760.388 6.667,597.293C6.667,923.484 271.101,1187.92 597.293,1187.92C923.484,1187.92 1187.92,923.484 1187.92,597.293Z" style="fill:white;stroke:rgb(35,31,32);stroke-width:13.33px;"/>
    <path d="M1187.92,597.292C1187.92,271.1 923.483,6.667 597.292,6.667C271.1,6.667 6.667,271.1 6.667,597.292C6.667,760.388 138.879,892.604 301.979,892.604C465.079,892.604 597.292,760.388 597.292,597.292C597.292,434.196 729.508,301.979 892.604,301.979C1055.7,301.979 1187.92,434.196 1187.92,597.292Z" style="stroke:black;stroke-width:13.33px;stroke-miterlimit:2;"/>
    <path d="M951.666,597.293C951.666,629.89 925.201,656.355 892.603,656.355C860.006,656.355 833.541,629.89 833.541,597.293C833.541,564.695 860.006,538.23 892.603,538.23C925.201,538.23 951.666,564.695 951.666,597.293Z" style="fill:rgb(35,31,32);stroke:rgb(35,31,32);stroke-width:13.33px;stroke-linecap:butt;stroke-linejoin:miter;stroke-miterlimit:10;"/>
    <path d="M361.041,597.293C361.041,629.89 334.576,656.355 301.978,656.355C269.381,656.355 242.916,629.89 242.916,597.293C242.916,564.695 269.381,538.23 301.978,538.23C334.576,538.23 361.041,564.695 361.041,597.293Z" style="fill:white;stroke:white;stroke-width:13.33px;stroke-linecap:butt;stroke-linejoin:miter;stroke-miterlimit:10;"/>
</svg>
